<svg width="24" height="24" viewBox="145 -10 350 350" fill="white" xmlns="http://www.w3.org/2000/svg">
    <path
        d="M291.5 7.6c-19.1 1.9-36 5.6-49.3 10.8-7.4 2.9-21.1 9.7-21.8 10.8-.3.4.2.5 1 .2 2.6-1 18.7 2.6 28 6.3 12.2 4.8 22.7 10.1 37.3 18.9 6.8 4.1 12.5 7.4 12.9 7.4.3 0 5.6-3.1 11.9-6.9 22.1-13.6 39.5-21.2 55.9-24.5l10.8-2.2-7.8-3.8c-16-7.9-30.1-12.3-47.4-15-10.7-1.6-25.5-2.5-31.5-2m-105 47.7C156.8 85.8 141 124.5 141 166.5c0 31 9 61.4 25.9 87l4.6 7 .6-9c1.4-17.9 6.6-34.7 18.4-58.3 14.8-29.7 35.2-58 69.7-96.8 1.9-2.2 1.9-2.2-8.4-12.4-11.1-11-26.4-23.8-35.3-29.4-6.7-4.3-17-9.6-18.7-9.6-.7 0-5.7 4.6-11.3 10.3M391 49.6c-14.1 7.6-34.6 24.2-49.2 40l-4.7 5 10.6 12c35.3 39.7 60.5 78.9 71.9 111.9 3.9 11.1 6.5 23.3 7.3 33l.6 9 4.6-7c35.7-54.2 34.3-125.7-3.4-179.2-6.6-9.4-25.6-29.3-27.8-29.3-.8 0-5.2 2.1-9.9 4.6m-107.5 91.3c-43.8 40.3-80.5 85.1-98.6 120.4l-5.1 9.9 5.8 6c27.3 27.7 61.8 43.7 102.9 47.7 30.4 3 68.2-6.6 96.1-24.4 14.5-9.3 33.4-26.2 33.4-30 0-11-17.4-38-44.5-69-19.4-22.3-71.5-74.5-74.2-74.5-.4 0-7.5 6.3-15.8 13.9" />
</svg>